HIERARCHY
ROOT hip
{
  OFFSET 0.00112043 5.09927 -9.65472
  CHANNELS 6 Xposition Yposition Zposition Zrotation Xrotation Yrotation
  JOINT abdomen
  {
    OFFSET 0 -1.186 -1.5018
    CHANNELS 3 Zrotation Xrotation Yrotation
    JOINT abdomen2
    {
      OFFSET 0 9.964 0.2134
      CHANNELS 3 Zrotation Xrotation Yrotation
      JOINT chest
      {
        OFFSET 0 13.134 -3.2573
        CHANNELS 3 Zrotation Xrotation Yrotation
        JOINT neck
        {
          OFFSET 0 20.686 -1.6905
          CHANNELS 3 Zrotation Xrotation Yrotation
          JOINT head
          {
            OFFSET 0 7.238 -0.1237
            CHANNELS 3 Zrotation Xrotation Yrotation
            End Site
            {
              OFFSET 0 0 0
            }
          }
        }
        JOINT lCollar
        {
          OFFSET 1.7069 20.075 5.0056
          CHANNELS 3 Zrotation Xrotation Yrotation
          JOINT lShldr
          {
            OFFSET 13.6458 -0.047 -4.849
            CHANNELS 3 Zrotation Xrotation Yrotation
            JOINT lForeArm
            {
              OFFSET 28.3255 -0.9759 2.2888
              CHANNELS 3 Zrotation Xrotation Yrotation
              JOINT lHand
              {
                OFFSET 22.1583 -0.53 10.8316
                CHANNELS 3 Zrotation Xrotation Yrotation
                JOINT lThumb1
                {
                  OFFSET 0.786 0.112 2.5817
                  CHANNELS 3 Zrotation Xrotation Yrotation
                  JOINT lThumb2
                  {
                    OFFSET 0.3601 -0.878 4.2331
                    CHANNELS 3 Zrotation Xrotation Yrotation
                    JOINT lThumb2_End
                    {
                      OFFSET 1.8127 -1.216 2.2227
                      CHANNELS 3 Zrotation Xrotation Yrotation
                      End Site
                      {
                        OFFSET 0.0181 -0.0122 0.0222
                      }
                    }
                  }
                }
                JOINT lCarpal1
                {
                  OFFSET 0.9571 1.114 1.7695
                  CHANNELS 3 Zrotation Xrotation Yrotation
                  JOINT lIndex1
                  {
                    OFFSET 4.1246 0.487 4.1451
                    CHANNELS 3 Zrotation Xrotation Yrotation
                    JOINT lIndex2
                    {
                      OFFSET 3.4052 -1.454 2.7682
                      CHANNELS 3 Zrotation Xrotation Yrotation
                      JOINT lIndex2_End
                      {
                        OFFSET 1.4531 -1.795 1.2713
                        CHANNELS 3 Zrotation Xrotation Yrotation
                        End Site
                        {
                          OFFSET 0.0145 -0.0179 0.0127
                        }
                      }
                    }
                  }
                  JOINT lMid1
                  {
                    OFFSET 5.6954 0.21 2.1184
                    CHANNELS 3 Zrotation Xrotation Yrotation
                    JOINT lMid2
                    {
                      OFFSET 3.9766 -1.54 2.3863
                      CHANNELS 3 Zrotation Xrotation Yrotation
                      JOINT lMid2_End
                      {
                        OFFSET 1.4042 -1.926 1.125
                        CHANNELS 3 Zrotation Xrotation Yrotation
                        End Site
                        {
                          OFFSET 0.014 -0.0193 0.0113
                        }
                      }
                    }
                  }
                }
                JOINT lCarpal2
                {
                  OFFSET 2.0956 0.66 -0.3894
                  CHANNELS 3 Zrotation Xrotation Yrotation
                  JOINT lRing1
                  {
                    OFFSET 5.0395 -0.09 2.4971
                    CHANNELS 3 Zrotation Xrotation Yrotation
                    JOINT lRing2
                    {
                      OFFSET 3.7921 -1.552 1.4806
                      CHANNELS 3 Zrotation Xrotation Yrotation
                      JOINT lRing2_End
                      {
                        OFFSET 1.4655 -1.808 0.9609
                        CHANNELS 3 Zrotation Xrotation Yrotation
                        End Site
                        {
                          OFFSET 0.0147 -0.0181 0.0096
                        }
                      }
                    }
                  }
                  JOINT lPinky1
                  {
                    OFFSET 4.9141 -1.269 0.3591
                    CHANNELS 3 Zrotation Xrotation Yrotation
                    JOINT lPinky2
                    {
                      OFFSET 3.1477 -1.685 0.8462
                      CHANNELS 3 Zrotation Xrotation Yrotation
                      JOINT lPinky2_End
                      {
                        OFFSET 0.8055 -1.585 0.7955
                        CHANNELS 3 Zrotation Xrotation Yrotation
                        End Site
                        {
                          OFFSET 0.0081 -0.0158 0.008
                        }
                      }
                    }
                  }
                }
              }
            }
          }
        }
        JOINT rCollar
        {
          OFFSET -1.7069 20.075 5.0056
          CHANNELS 3 Zrotation Xrotation Yrotation
          JOINT rShldr
          {
            OFFSET -13.6458 -0.047 -4.849
            CHANNELS 3 Zrotation Xrotation Yrotation
            JOINT rForeArm
            {
              OFFSET -28.3255 -0.9759 2.2888
              CHANNELS 3 Zrotation Xrotation Yrotation
              JOINT rHand
              {
                OFFSET -22.1583 -0.53 10.8316
                CHANNELS 3 Zrotation Xrotation Yrotation
                JOINT rThumb1
                {
                  OFFSET -0.786 0.112 2.5817
                  CHANNELS 3 Zrotation Xrotation Yrotation
                  JOINT rThumb2
                  {
                    OFFSET -0.3601 -0.878 4.2331
                    CHANNELS 3 Zrotation Xrotation Yrotation
                    JOINT rThumb2_End
                    {
                      OFFSET -1.8127 -1.216 2.2227
                      CHANNELS 3 Zrotation Xrotation Yrotation
                      End Site
                      {
                        OFFSET -0.0181 -0.0122 0.0222
                      }
                    }
                  }
                }
                JOINT rCarpal1
                {
                  OFFSET -0.9571 1.114 1.7695
                  CHANNELS 3 Zrotation Xrotation Yrotation
                  JOINT rIndex1
                  {
                    OFFSET -4.1246 0.487 4.1451
                    CHANNELS 3 Zrotation Xrotation Yrotation
                    JOINT rIndex2
                    {
                      OFFSET -3.4052 -1.454 2.7682
                      CHANNELS 3 Zrotation Xrotation Yrotation
                      JOINT rIndex2_End
                      {
                        OFFSET -1.4531 -1.795 1.2713
                        CHANNELS 3 Zrotation Xrotation Yrotation
                        End Site
                        {
                          OFFSET -0.0145 -0.018 0.0127
                        }
                      }
                    }
                  }
                  JOINT rMid1
                  {
                    OFFSET -5.6954 0.21 2.1184
                    CHANNELS 3 Zrotation Xrotation Yrotation
                    JOINT rMid2
                    {
                      OFFSET -3.9766 -1.54 2.3863
                      CHANNELS 3 Zrotation Xrotation Yrotation
                      JOINT rMid2_End
                      {
                        OFFSET -1.4042 -1.926 1.125
                        CHANNELS 3 Zrotation Xrotation Yrotation
                        End Site
                        {
                          OFFSET -0.014 -0.0193 0.0113
                        }
                      }
                    }
                  }
                }
                JOINT rCarpal2
                {
                  OFFSET -2.0956 0.66 -0.3894
                  CHANNELS 3 Zrotation Xrotation Yrotation
                  JOINT rRing1
                  {
                    OFFSET -5.0395 -0.09 2.4971
                    CHANNELS 3 Zrotation Xrotation Yrotation
                    JOINT rRing2
                    {
                      OFFSET -3.7921 -1.552 1.4806
                      CHANNELS 3 Zrotation Xrotation Yrotation
                      JOINT rRing2_End
                      {
                        OFFSET -1.4655 -1.808 0.9609
                        CHANNELS 3 Zrotation Xrotation Yrotation
                        End Site
                        {
                          OFFSET -0.0147 -0.0181 0.0096
                        }
                      }
                    }
                  }
                  JOINT rPinky1
                  {
                    OFFSET -4.9141 -1.269 0.3592
                    CHANNELS 3 Zrotation Xrotation Yrotation
                    JOINT rPinky2
                    {
                      OFFSET -3.1477 -1.685 0.8462
                      CHANNELS 3 Zrotation Xrotation Yrotation
                      JOINT rPinky2_End
                      {
                        OFFSET -0.8055 -1.585 0.7955
                        CHANNELS 3 Zrotation Xrotation Yrotation
                        End Site
                        {
                          OFFSET -0.0081 -0.0158 0.008
                        }
                      }
                    }
                  }
                }
              }
            }
          }
        }
      }
    }
  }
  JOINT lThigh
  {
    OFFSET 8.367 -8.2066 0.5982
    CHANNELS 3 Zrotation Xrotation Yrotation
    JOINT lShin
    {
      OFFSET 2.1923 -43.463 -0.4932
      CHANNELS 3 Zrotation Xrotation Yrotation
      JOINT lFoot
      {
        OFFSET 0.7333 -45.8593 -2.6451
        CHANNELS 3 Zrotation Xrotation Yrotation
        End Site
        {
          OFFSET 2.6618 -4.2699 12.3931
        }
      }
    }
  }
  JOINT rThigh
  {
    OFFSET -8.367 -8.2066 0.5982
    CHANNELS 3 Zrotation Xrotation Yrotation
    JOINT rShin
    {
      OFFSET -2.1923 -43.463 -0.4931
      CHANNELS 3 Zrotation Xrotation Yrotation
      JOINT rFoot
      {
        OFFSET -0.7333 -45.8593 -2.6451
        CHANNELS 3 Zrotation Xrotation Yrotation
        End Site
        {
          OFFSET -2.6618 -4.2699 12.3931
        }
      }
    }
  }
}
MOTION
Frames:	4
Frame Time:	0.0333333
0 91.7903 2.51682 0 0 -0 0 0 -0 0 0 -0 0 0 -0 0 0 -0 0 0 -0 0 0 -0 1.66051 0.0835086 5.75766 -0.0175111 0.895433 15.7816 7.95139e-016 -1.98785e-016 -0 5.46658e-016 -3.97569e-016 -0 5.96354e-016 0 -0 3.97569e-016 1.98785e-016 9.54166e-015 1.49089e-016 -3.97569e-016 -0 6.4605e-016 0 3.18055e-015 5.96354e-016 0 3.18055e-015 8.94531e-016 -1.98785e-016 6.36111e-015 6.4605e-016 0 3.18055e-015 5.96354e-016 0 3.18055e-015 8.94531e-016 -1.98785e-016 6.36111e-015 1.49089e-016 -3.97569e-016 -0 6.4605e-016 0 3.18055e-015 5.96354e-016 0 3.18055e-015 8.94531e-016 -1.98785e-016 6.36111e-015 6.4605e-016 0 3.18055e-015 5.96354e-016 0 3.18055e-015 8.94531e-016 -1.98785e-016 6.36111e-015 0 0 -0 -1.4496 0.0636048 -5.0245 -1.74811 1.20616 -16.8394 -1.19271e-015 1.98785e-016 -3.18055e-015 -3.97569e-016 1.98785e-016 -3.18055e-015 -2.98177e-016 1.98785e-016 -3.18055e-015 -2.98177e-016 3.97569e-016 -0 4.96962e-016 0 -6.36111e-015 -9.93923e-017 3.97569e-016 -0 -8.94531e-016 5.96354e-016 -0 -3.97569e-016 3.97569e-016 -0 -9.93923e-017 3.97569e-016 -0 -8.94531e-016 5.96354e-016 -0 -3.97569e-016 3.97569e-016 -0 4.96962e-016 0 -6.36111e-015 -9.93923e-017 3.97569e-016 -0 -8.94531e-016 5.96354e-016 -0 -3.97569e-016 3.97569e-016 -0 -9.93923e-017 3.97569e-016 -0 -8.94531e-016 5.96354e-016 -0 -3.97569e-016 3.97569e-016 -0 -4.66111 -0.998717 0.12318 0.00986924 1.54847 0.176523 4.65186 -0.572283 -0.254274 4.66111 -0.998765 -0.123176 -0.00986867 1.54869 -0.176537 -4.65186 -0.572453 0.25427 
1.21859 55.4952 39.1758 -0.0151062 0.00480107 -125.263 -1.47142 2.51895 -0.0765101 -2.94374 5.03906 -0.0883502 -2.94375 5.03906 -0.0883166 -6.19947e-006 7.3988 -3.39848e-005 1.48984e-006 -27.4107 9.91917e-006 -8.44243 -49.2468 17.5511 -43.6753 19.8133 23.6001 51.8911 -14.2592 10.9289 -10.0295 -17.8685 -4.20615 5.77293e-007 -5.64464e-007 -2.77227e-007 -9.54166e-015 -1.98785e-015 7.95139e-016 5.77294e-007 -5.64464e-007 -2.77227e-007 3.18055e-015 -2.38542e-015 -1.59028e-015 5.77293e-007 -5.64464e-007 -2.77227e-007 -1.27222e-014 -5.1684e-015 7.95139e-016 5.77294e-007 -5.64464e-007 -2.77227e-007 5.77293e-007 -5.64464e-007 -2.77227e-007 -1.27222e-014 -5.1684e-015 7.95139e-016 5.77294e-007 -5.64464e-007 -2.77227e-007 3.18055e-015 -2.38542e-015 -1.59028e-015 5.77293e-007 -5.64464e-007 -2.77227e-007 -1.27222e-014 -5.1684e-015 7.95139e-016 5.77294e-007 -5.64464e-007 -2.77227e-007 5.77293e-007 -5.64464e-007 -2.77227e-007 -1.27222e-014 -5.1684e-015 7.95139e-016 5.77294e-007 -5.64464e-007 -2.77227e-007 1.4718 -21.7727 16.1536 42.0716 -4.01388 19.0998 -1.83631 -2.60527 11.3216 9.77558 -7.01257 3.55253 -1.33246e-006 7.56183e-007 -2.7403e-006 -3.13007e-007 -2.34322e-007 1.71311e-007 7.0645e-007 -1.22483e-006 3.08292e-006 3.18055e-015 7.55382e-015 -3.97569e-016 -1.33246e-006 7.56183e-007 -2.7403e-006 -3.13007e-007 -2.34322e-007 1.71311e-007 7.0645e-007 -1.22483e-006 3.08292e-006 -1.33246e-006 7.56183e-007 -2.7403e-006 -3.13007e-007 -2.34322e-007 1.71311e-007 7.0645e-007 -1.22483e-006 3.08292e-006 3.18055e-015 7.55382e-015 -3.97569e-016 -1.33246e-006 7.56183e-007 -2.7403e-006 -3.13007e-007 -2.34322e-007 1.71311e-007 7.0645e-007 -1.22483e-006 3.08292e-006 -1.33246e-006 7.56183e-007 -2.7403e-006 -3.13007e-007 -2.34322e-007 1.71311e-007 7.0645e-007 -1.22483e-006 3.08292e-006 -0.834013 -15.3149 5.01814 21.0047 77.4353 -18.713 12.5661 48.3712 -0.101911 -0.257077 -13.6437 -2.86191 -23.5338 77.6978 20.6762 -12.7952 48.7596 3.81407 
7.80049 38.3206 55.8733 -0.0117114 0.0120496 178.369 -2.16914 3.72194 -0.17691 -4.34052 7.44791 -0.212837 -4.34052 7.4479 -0.212839 4.72056e-005 10.7282 -9.06012e-006 2.71509e-006 -39.7456 7.77144e-007 11.5424 -66.8093 46.0252 -68.0891 27.2749 33.0857 73.3404 -19.924 9.17491 -15.6958 -25.4707 -7.20197 -4.77083e-015 -6.36111e-015 -1.59028e-015 -4.77083e-015 0 4.77083e-015 -1.59028e-015 0 -4.77083e-015 -4.77083e-015 0 -1.59028e-015 3.18055e-015 -6.36111e-015 -0 -3.18055e-015 -6.36111e-015 1.59028e-015 -3.18055e-015 -9.54166e-015 -3.18055e-015 3.18055e-015 -6.36111e-015 -0 -3.18055e-015 -6.36111e-015 1.59028e-015 -3.18055e-015 -9.54166e-015 -3.18055e-015 -4.77083e-015 0 -1.59028e-015 3.18055e-015 -6.36111e-015 -0 -3.18055e-015 -6.36111e-015 1.59028e-015 -3.18055e-015 -9.54166e-015 -3.18055e-015 3.18055e-015 -6.36111e-015 -0 -3.18055e-015 -6.36111e-015 1.59028e-015 -3.18055e-015 -9.54166e-015 -3.18055e-015 6.30346 -30.1454 24.6402 62.8011 -5.13051 30.066 -0.881863 -3.75831 24.7401 14.5366 -10.2555 5.11722 -6.36111e-015 -3.18055e-015 -6.36111e-015 -6.36111e-015 7.95139e-016 1.59028e-015 -6.17947e-031 -5.56597e-015 -6.36111e-015 -1.32417e-031 -2.38542e-015 -3.18055e-015 3.18055e-015 -1.51076e-014 -3.18055e-015 -6.36111e-015 -7.95139e-015 -0 -3.18055e-015 3.97569e-015 -4.77083e-015 3.18055e-015 -1.51076e-014 -3.18055e-015 -6.36111e-015 -7.95139e-015 -0 -3.18055e-015 3.97569e-015 -4.77083e-015 -1.32417e-031 -2.38542e-015 -3.18055e-015 3.18055e-015 -1.51076e-014 -3.18055e-015 -6.36111e-015 -7.95139e-015 -0 -3.18055e-015 3.97569e-015 -4.77083e-015 3.18055e-015 -1.51076e-014 -3.18055e-015 -6.36111e-015 -7.95139e-015 -0 -3.18055e-015 3.97569e-015 -4.77083e-015 1.33725 -22.6582 9.20403 162.671 65.4741 -156.088 15.9638 70.7952 0.0633288 -2.45173 -20.4905 -6.0798 -163.039 64.7404 155.43 -22.0398 71.2597 10.3209 
6.16775 42.124 51.7143 -0.0133532 0.011028 -169.105 -2.11403 3.58921 -0.13989 -4.23175 7.18113 -0.147169 -4.23175 7.18113 -0.147167 -1.56796e-005 9.98836 1.43793e-006 -2.9602e-006 -37.0045 1.54731e-007 3.43876 -63.8291 36.8239 -61.6301 26.1237 30.3461 64.835 -18.7563 8.52408 -14.3563 -23.8121 -6.46159 -1.35168e-006 -2.64333e-006 2.3315e-007 3.18055e-015 -3.18055e-015 -3.18055e-015 6.36111e-015 -9.54166e-015 -1.59028e-015 -1.76556e-031 -3.18055e-015 -3.18055e-015 -1.35168e-006 -2.64333e-006 2.3315e-007 -6.36111e-015 0 1.59028e-015 8.82781e-032 -3.18055e-015 1.59028e-015 -1.35168e-006 -2.64333e-006 2.3315e-007 -6.36111e-015 0 1.59028e-015 8.82781e-032 -3.18055e-015 1.59028e-015 -1.76556e-031 -3.18055e-015 -3.18055e-015 -1.35168e-006 -2.64333e-006 2.3315e-007 -6.36111e-015 0 1.59028e-015 8.82781e-032 -3.18055e-015 1.59028e-015 -1.35168e-006 -2.64333e-006 2.3315e-007 -6.36111e-015 0 1.59028e-015 8.82781e-032 -3.18055e-015 1.59028e-015 4.33981 -28.2982 21.098 58.5039 -4.52171 27.6952 -0.868018 -3.45282 23.2748 13.4056 -10.1382 4.53096 4.00347e-006 -4.0686e-006 -1.30543e-006 6.36111e-015 1.59028e-015 -4.77083e-015 1.54738e-006 4.7649e-006 3.61575e-006 -3.18055e-015 0 1.59028e-015 4.00347e-006 -4.0686e-006 -1.30543e-006 3.18055e-015 0 7.95139e-015 1.54738e-006 4.7649e-006 3.61575e-006 4.00347e-006 -4.0686e-006 -1.30543e-006 3.18055e-015 0 7.95139e-015 1.54738e-006 4.7649e-006 3.61575e-006 -3.18055e-015 0 1.59028e-015 4.00347e-006 -4.0686e-006 -1.30543e-006 3.18055e-015 0 7.95139e-015 1.54738e-006 4.7649e-006 3.61575e-006 4.00347e-006 -4.0686e-006 -1.30543e-006 3.18055e-015 0 7.95139e-015 1.54738e-006 4.7649e-006 3.61575e-006 0.81814 -20.7611 7.99928 156.538 73.0204 -151.191 15.2714 65.7011 -0.0483333 -1.95237 -18.8154 -5.0923 -156.885 72.3229 150.633 -18.9297 66.1597 7.86448 
